<?xml version="1.0" encoding="UTF-8" standalone="no"?>
<!-- Created with Inkscape (http://www.inkscape.org/) -->

<svg
   xmlns:dc="http://purl.org/dc/elements/1.1/"
   xmlns:cc="http://creativecommons.org/ns#"
   xmlns:rdf="http://www.w3.org/1999/02/22-rdf-syntax-ns#"
   xmlns:svg="http://www.w3.org/2000/svg"
   xmlns="http://www.w3.org/2000/svg"
   xmlns:sodipodi="http://sodipodi.sourceforge.net/DTD/sodipodi-0.dtd"
   xmlns:inkscape="http://www.inkscape.org/namespaces/inkscape"
   width="143.19374mm"
   height="114.27574mm"
   viewBox="0 0 143.19374 114.27574"
   version="1.1"
   id="svg8"
   inkscape:version="0.92.4 (5da689c313, 2019-01-14)"
   sodipodi:docname="cloud.svg">
  <defs
     id="defs2" />
  <sodipodi:namedview
     id="base"
     pagecolor="#ffffff"
     bordercolor="#666666"
     borderopacity="1.0"
     inkscape:pageopacity="0.0"
     inkscape:pageshadow="2"
     inkscape:zoom="1"
     inkscape:cx="368.38048"
     inkscape:cy="273.8668"
     inkscape:document-units="mm"
     inkscape:current-layer="layer1"
     showgrid="false"
     inkscape:window-width="1920"
     inkscape:window-height="986"
     inkscape:window-x="-11"
     inkscape:window-y="-11"
     inkscape:window-maximized="1"
     fit-margin-top="0"
     fit-margin-left="0"
     fit-margin-right="0"
     fit-margin-bottom="0">
    <inkscape:grid
       type="xygrid"
       id="grid4518"
       originx="-28.98941"
       originy="-92.231546" />
  </sodipodi:namedview>
  <metadata
     id="metadata5">
    <rdf:RDF>
      <cc:Work
         rdf:about="">
        <dc:format>image/svg+xml</dc:format>
        <dc:type
           rdf:resource="http://purl.org/dc/dcmitype/StillImage" />
        <dc:title></dc:title>
      </cc:Work>
    </rdf:RDF>
  </metadata>
  <g
     inkscape:label="Layer 1"
     inkscape:groupmode="layer"
     id="layer1"
     transform="translate(-28.989411,-90.492708)">
    <path
       style="fill:none;stroke:#000000;stroke-width:0.26458332px;stroke-linecap:butt;stroke-linejoin:miter;stroke-opacity:1"
       d="m 29.798697,177.17682 c -0.480159,-0.52343 -0.575905,-1.2792 -0.658941,-1.89518 l -0.01805,-82.585398 c 0.104004,-0.507736 0.07562,-1.028711 0.619731,-1.492436 0.537229,-0.471169 1.074459,-0.454341 1.611688,-0.578806 H 170.16299 c 0.48719,0.07566 0.98402,0.02101 1.44199,0.491108 0.42352,0.414459 0.33584,0.767575 0.39873,1.13876 l 0.0456,83.217362 c 0.026,0.29877 -0.37296,1.45012 -0.84428,1.75339 -0.20611,0.36504 -1.84188,0.75604 -2.1813,0.70019 l -31.44041,0.0117 v 26.45833 L 103.1875,162.0625 c -1.14352,-1.41388 -1.85982,-2.12988 -3.280598,-1.02224 -1.642642,1.22279 -0.308809,2.79705 0.434318,3.73489 L 111.125,177.9375 31.774074,177.8907 c -0.724985,-0.0592 -1.611843,-0.1029 -1.975377,-0.71391 z"
       id="path4522"
       inkscape:connector-curvature="0"
       sodipodi:nodetypes="ccccccccccccccccccc" />
    <path
       style="fill:#e1e1e1;fill-opacity:1;stroke:none;stroke-width:0.80175889;stroke-linecap:round;stroke-miterlimit:4;stroke-dasharray:none;stroke-opacity:1"
       d="m 453.04336,688.73245 c -38.78897,-47.75089 -66.59372,-81.38734 -67.79138,-82.00977 -2.77419,-1.44175 -6.0512,-0.70077 -8.80416,1.99076 -3.09743,3.02832 -3.22532,6.21288 -0.43642,10.86776 0.93203,1.55564 10.71665,13.80626 21.74359,27.22361 L 417.80398,671.2 268.29801,671.37841 c -82.22828,0.0981 -150.48401,-0.075 -151.67938,-0.38476 -1.19537,-0.30976 -2.83366,-1.4475 -3.64063,-2.52833 l -1.46722,-1.96514 -0.18136,-159.35601 -0.18137,-159.356 1.71112,-1.9893 1.71113,-1.98931 265.48093,-0.17956 265.48093,-0.17956 1.86666,1.46832 1.86667,1.46832 v 159.29668 159.29669 l -1.61548,2.40267 c -0.92304,1.37281 -2.66578,2.76441 -4.06586,3.24664 -1.82093,0.62717 -18.11583,0.85422 -63.43354,0.88388 l -60.98315,0.0399 -0.18159,49.06671 -0.18158,49.06671 z"
       id="path4524"
       inkscape:connector-curvature="0"
       transform="scale(0.26458333)" />
  </g>
</svg>
